# xmcd
#
# Track frame offsets:
#	150
#	16641
#	33516
#	46866
#	61079
#	75884
#	90969
#	109119
#	120304
#	135428
#	150354
#	165376
#	181847
#	196615
#
# Disc length: 2780 seconds
#
# Revision: 1
# Processed by: cddbd v1.5.2PL0 Copyright (c) Steve Scherf et al.
# Submitted via: audiograbber 1.83.01
#
DISCID=840ada0e
DTITLE=Steibrugg-Musikanten Volketswil - Konzert Wallberg 2010
DYEAR=1020
DGENRE=Volklore
TTITLE0=Neuer Schwung
TTITLE1=Auf der Vogelwiese
TTITLE2=Festtagspolka
TTITLE3=Andulka
TTITLE4=Amazonaswälder
TTITLE5=Haderlumpen-Polka
TTITLE6=Bi üs dehäm
TTITLE7=Erzherzog Albrecht Marsch
TTITLE8=Du kleine Stadt
TTITLE9=Rosemarie
TTITLE10=Sedesatka
TTITLE11=Kuschel-Polka
TTITLE12=Jubelpolka
TTITLE13=Träume unter Palmen
EXTD=Diese CD ist ein Konzert Livemitschnitt.
EXTT0=
EXTT1=
EXTT2=
EXTT3=
EXTT4=
EXTT5=
EXTT6=
EXTT7=
EXTT8=Gesang: Manuela Attenberger and Manfred Herre - Passauer Dreflüssemusikante
EXTT8=n
EXTT9=Gesang: Manuela Attenberger and Manfred Herre - Passauer Dreflüssemusikante
EXTT9=n
EXTT10=
EXTT11=
EXTT12=
EXTT13=
PLAYORDER=
